<svg width="20" height="12" viewBox="0 0 20 12" fill="none" xmlns="http://www.w3.org/2000/svg">
<path d="M5.5 11.5C3.96667 11.5 2.66667 10.9667 1.6 9.9C0.533333 8.83333 0 7.53333 0 6C0 4.46667 0.533333 3.16667 1.6 2.1C2.66667 1.03333 3.96667 0.5 5.5 0.5H16C17.1 0.5 18.0417 0.891667 18.825 1.675C19.6083 2.45833 20 3.4 20 4.5C20 5.6 19.6083 6.54167 18.825 7.325C18.0417 8.10833 17.1 8.5 16 8.5H6.5C5.8 8.5 5.20833 8.25833 4.725 7.775C4.24167 7.29167 4 6.7 4 6C4 5.3 4.24167 4.70833 4.725 4.225C5.20833 3.74167 5.8 3.5 6.5 3.5H15.25C15.4667 3.5 15.6457 3.571 15.787 3.713C15.9283 3.855 15.9993 4.034 16 4.25C16 4.46667 15.929 4.64567 15.787 4.787C15.645 4.92833 15.466 4.99933 15.25 5H6.5C6.21667 5 5.979 5.096 5.787 5.288C5.595 5.48 5.49933 5.71733 5.5 6C5.5 6.28333 5.596 6.521 5.788 6.713C5.98 6.905 6.21733 7.00067 6.5 7H16C16.7 7 17.2917 6.75833 17.775 6.275C18.2583 5.79167 18.5 5.2 18.5 4.5C18.5 3.8 18.2583 3.20833 17.775 2.725C17.2917 2.24167 16.7 2 16 2H5.5C4.4 2 3.45833 2.39167 2.675 3.175C1.89167 3.95833 1.5 4.9 1.5 6C1.5 7.1 1.89167 8.04167 2.675 8.825C3.45833 9.60833 4.4 10 5.5 10H15.25C15.4667 10 15.6457 10.071 15.787 10.213C15.9283 10.355 15.9993 10.534 16 10.75C16 10.9667 15.929 11.1457 15.787 11.287C15.645 11.4283 15.466 11.4993 15.25 11.5H5.5Z" fill="#19A942"/>
</svg>
