<svg width="157" height="26" viewBox="0 0 157 26" fill="none" xmlns="http://www.w3.org/2000/svg">
<path d="M0 5C17.5315 4.99946 21.7244 4.99933 49.6914 4.99847C77.6583 4.99761 85.0393 4.99739 101.736 4.99687C118.433 4.99636 122.772 4.99623 157 4.99518" stroke="#E2E2E2"/>
<path d="M0 21C18.2114 21 24.8765 21 53.928 21C82.9795 21 80.0741 21 97.4183 21C114.762 21 121.444 21 157 21" stroke="#1795C7"/>
<path d="M26 21C41.1955 21 46.7568 21 70.9972 21C95.2377 21 92.8134 21 107.285 21C121.757 21 127.333 21 157 21" stroke="#D9D9D9"/>
<circle cx="152" cy="5" r="5" fill="#D9D9D9"/>
<circle cx="24" cy="21" r="5" fill="#1795C7"/>
</svg>
