<svg width="164" height="40" viewBox="0 0 164 40" fill="none" xmlns="http://www.w3.org/2000/svg">
<rect x="-0.0749286" y="0.0749286" width="0.149857" height="38.9762" transform="matrix(-1 0 0 1 60.6783 0)" stroke="#E3E7EF" stroke-width="0.149857"/>
<rect x="-0.0749286" y="0.0749286" width="0.149857" height="38.9762" transform="matrix(-1 0 0 1 45.9927 0)" stroke="#E3E7EF" stroke-width="0.149857"/>
<rect x="-0.0749286" y="0.0749286" width="0.149857" height="38.9762" transform="matrix(-1 0 0 1 31.3052 0)" stroke="#E3E7EF" stroke-width="0.149857"/>
<rect x="-0.0749286" y="0.0749286" width="0.149857" height="38.9762" transform="matrix(-1 0 0 1 16.6198 0)" stroke="#E3E7EF" stroke-width="0.149857"/>
<rect x="-0.0749286" y="0.0749286" width="0.149857" height="38.9762" transform="matrix(-1 0 0 1 1.93401 0)" stroke="#E3E7EF" stroke-width="0.149857"/>
<rect x="-0.0749286" y="0.0749286" width="0.149857" height="38.9762" transform="matrix(-1 0 0 1 75.3638 0)" stroke="#E3E7EF" stroke-width="0.149857"/>
<rect width="3.44309" height="29.1098" rx="1.72154" fill="#9917C7"/>
<rect x="73.5566" y="22.5366" width="3.44309" height="16.5894" rx="1.72154" fill="#9917C7"/>
<rect x="29.7363" y="10.9553" width="3.44309" height="21.5976" rx="1.72154" fill="#9917C7"/>
<rect x="14.7109" y="6.88617" width="3.7561" height="17.5285" rx="1.87805" fill="#9917C7"/>
<rect x="59.1582" y="4.06909" width="3.44309" height="29.1098" rx="1.72154" fill="#9917C7"/>
<rect x="43.8203" y="21.5976" width="3.7561" height="17.5285" rx="1.87805" fill="#9917C7"/>
<rect x="-0.0749286" y="0.0749286" width="0.149857" height="38.9762" transform="matrix(-1 0 0 1 147.678 0)" stroke="#E3E7EF" stroke-width="0.149857"/>
<rect x="-0.0749286" y="0.0749286" width="0.149857" height="38.9762" transform="matrix(-1 0 0 1 132.993 0)" stroke="#E3E7EF" stroke-width="0.149857"/>
<rect x="-0.0749286" y="0.0749286" width="0.149857" height="38.9762" transform="matrix(-1 0 0 1 118.305 0)" stroke="#E3E7EF" stroke-width="0.149857"/>
<rect x="-0.0749286" y="0.0749286" width="0.149857" height="38.9762" transform="matrix(-1 0 0 1 103.62 0)" stroke="#E3E7EF" stroke-width="0.149857"/>
<rect x="-0.0749286" y="0.0749286" width="0.149857" height="38.9762" transform="matrix(-1 0 0 1 88.934 0)" stroke="#E3E7EF" stroke-width="0.149857"/>
<rect x="-0.0749286" y="0.0749286" width="0.149857" height="38.9762" transform="matrix(-1 0 0 1 162.364 0)" stroke="#E3E7EF" stroke-width="0.149857"/>
<rect x="87" width="3.44309" height="29.1098" rx="1.72154" fill="#9917C7"/>
<rect x="160.557" y="22.5366" width="3.44309" height="16.5894" rx="1.72154" fill="#9917C7"/>
<rect x="116.736" y="10.9553" width="3.44309" height="21.5976" rx="1.72154" fill="#9917C7"/>
<rect x="101.711" y="6.88617" width="3.7561" height="17.5285" rx="1.87805" fill="#9917C7"/>
<rect x="146.158" y="4.06909" width="3.44309" height="29.1098" rx="1.72154" fill="#9917C7"/>
<rect x="130.82" y="21.5976" width="3.7561" height="17.5285" rx="1.87805" fill="#9917C7"/>
</svg>
