<svg width="67" height="67" viewBox="0 0 67 67" fill="none" xmlns="http://www.w3.org/2000/svg">
<path d="M38.289 6.66668C38.0943 4.92498 37.2645 3.31614 35.9582 2.14775C34.652 0.979366 32.9609 0.333396 31.2084 0.333344H20.125C18.3725 0.333396 16.6814 0.979366 15.3752 2.14775C14.0689 3.31614 13.2391 4.92498 13.0444 6.66668H7.45837C5.56871 6.66668 3.75643 7.41735 2.42024 8.75354C1.08404 10.0897 0.333374 11.902 0.333374 13.7917V56.5417C0.333374 58.4313 1.08404 60.2436 2.42024 61.5798C3.75643 62.916 5.56871 63.6667 7.45837 63.6667H34.565C33.2074 62.2534 32.058 60.654 31.1514 58.9167H7.45837C6.82849 58.9167 6.22439 58.6665 5.779 58.2211C5.3336 57.7757 5.08337 57.1716 5.08337 56.5417V13.7917C5.08337 13.1618 5.3336 12.5577 5.779 12.1123C6.22439 11.6669 6.82849 11.4167 7.45837 11.4167H14.2002C15.4795 13.3262 17.655 14.5833 20.125 14.5833H31.2084C33.6784 14.5833 35.8539 13.3262 37.1332 11.4167H43.875C44.5049 11.4167 45.109 11.6669 45.5544 12.1123C45.9998 12.5577 46.25 13.1618 46.25 13.7917V29.074C47.8212 28.8321 49.415 28.7716 51 28.8935V13.7917C51 11.902 50.2494 10.0897 48.9132 8.75354C47.577 7.41735 45.7647 6.66668 43.875 6.66668H38.289ZM38.3175 6.97068L38.3334 7.45834C38.3334 7.29368 38.327 7.13218 38.3175 6.97068ZM20.125 5.08334H31.2084C31.8383 5.08334 32.4424 5.33357 32.8878 5.77896C33.3332 6.22436 33.5834 6.82845 33.5834 7.45834C33.5834 8.08823 33.3332 8.69232 32.8878 9.13772C32.4424 9.58312 31.8383 9.83334 31.2084 9.83334H20.125C19.4952 9.83334 18.8911 9.58312 18.4457 9.13772C18.0003 8.69232 17.75 8.08823 17.75 7.45834C17.75 6.82845 18.0003 6.22436 18.4457 5.77896C18.8911 5.33357 19.4952 5.08334 20.125 5.08334ZM31.8639 38.6627C33.5649 35.894 35.8941 33.5649 38.6627 31.8638L41.595 28.9283C41.8284 28.7109 42.0155 28.4487 42.1453 28.1574C42.2752 27.8661 42.345 27.5516 42.3506 27.2327C42.3562 26.9138 42.2975 26.597 42.1781 26.3013C42.0586 26.0056 41.8809 25.7369 41.6553 25.5114C41.4298 25.2859 41.1612 25.1081 40.8654 24.9886C40.5697 24.8692 40.2529 24.8105 39.9341 24.8161C39.6152 24.8218 39.3007 24.8916 39.0093 25.0214C38.718 25.1512 38.4558 25.3383 38.2384 25.5717L22.5 41.31L16.2617 35.0717C15.8115 34.6522 15.216 34.4238 14.6007 34.4346C13.9854 34.4455 13.3984 34.6947 12.9632 35.1299C12.5281 35.565 12.2788 36.1521 12.268 36.7674C12.2571 37.3826 12.4855 37.9781 12.905 38.4283L20.8217 46.345C21.267 46.7898 21.8707 47.0396 22.5 47.0396C23.1294 47.0396 23.7331 46.7898 24.1784 46.345L31.8639 38.6627ZM66.8334 49.4167C66.8334 44.7975 64.9984 40.3675 61.7322 37.1012C58.4659 33.835 54.0359 32 49.4167 32C44.7975 32 40.3675 33.835 37.1013 37.1012C33.835 40.3675 32 44.7975 32 49.4167C32 54.0359 33.835 58.4659 37.1013 61.7321C40.3675 64.9984 44.7975 66.8333 49.4167 66.8333C54.0359 66.8333 58.4659 64.9984 61.7322 61.7321C64.9984 58.4659 66.8334 54.0359 66.8334 49.4167ZM51 51L51.0032 58.9262C51.0032 59.3461 50.8364 59.7488 50.5395 60.0458C50.2425 60.3427 49.8398 60.5095 49.4199 60.5095C48.9999 60.5095 48.5972 60.3427 48.3003 60.0458C48.0034 59.7488 47.8365 59.3461 47.8365 58.9262V51H39.904C39.4841 51 39.0814 50.8332 38.7845 50.5363C38.4875 50.2393 38.3207 49.8366 38.3207 49.4167C38.3207 48.9968 38.4875 48.594 38.7845 48.2971C39.0814 48.0002 39.4841 47.8333 39.904 47.8333H47.8334V39.9167C47.8334 39.4967 48.0002 39.094 48.2971 38.7971C48.5941 38.5002 48.9968 38.3333 49.4167 38.3333C49.8366 38.3333 50.2394 38.5002 50.5363 38.7971C50.8332 39.094 51 39.4967 51 39.9167V47.8333H58.9072C59.3271 47.8333 59.7299 48.0002 60.0268 48.2971C60.3237 48.594 60.4905 48.9968 60.4905 49.4167C60.4905 49.8366 60.3237 50.2393 60.0268 50.5363C59.7299 50.8332 59.3271 51 58.9072 51H51Z" fill="white"/>
</svg>
