<svg width="170" height="57" viewBox="0 0 170 57" fill="none" xmlns="http://www.w3.org/2000/svg">
<path d="M0 34C0 32.3431 1.34315 31 3 31H7C8.65685 31 10 32.3431 10 34V54C10 55.6569 8.65685 57 7 57H3C1.34315 57 0 55.6569 0 54V34Z" fill="white"/>
<path d="M20 3C20 1.34314 21.3431 0 23 0H27C28.6569 0 30 1.34315 30 3V54C30 55.6569 28.6569 57 27 57H23C21.3431 57 20 55.6569 20 54V3Z" fill="white"/>
<path d="M40 21C40 19.3431 41.3431 18 43 18H47C48.6569 18 50 19.3431 50 21V54C50 55.6569 48.6569 57 47 57H43C41.3431 57 40 55.6569 40 54V21Z" fill="white"/>
<path d="M60 34C60 32.3431 61.3431 31 63 31H67C68.6569 31 70 32.3431 70 34V54C70 55.6569 68.6569 57 67 57H63C61.3431 57 60 55.6569 60 54V34Z" fill="white"/>
<path d="M80 29C80 27.3431 81.3431 26 83 26H87C88.6569 26 90 27.3431 90 29V54C90 55.6569 88.6569 57 87 57H83C81.3431 57 80 55.6569 80 54V29Z" fill="white"/>
<path d="M100 21C100 19.3431 101.343 18 103 18H107C108.657 18 110 19.3431 110 21V54C110 55.6569 108.657 57 107 57H103C101.343 57 100 55.6569 100 54V21Z" fill="white"/>
<path d="M120 34C120 32.3431 121.343 31 123 31H127C128.657 31 130 32.3431 130 34V54C130 55.6569 128.657 57 127 57H123C121.343 57 120 55.6569 120 54V34Z" fill="white"/>
<path d="M140 29C140 27.3431 141.343 26 143 26H147C148.657 26 150 27.3431 150 29V54C150 55.6569 148.657 57 147 57H143C141.343 57 140 55.6569 140 54V29Z" fill="white"/>
<path d="M160 21C160 19.3431 161.343 18 163 18H167C168.657 18 170 19.3431 170 21V54C170 55.6569 168.657 57 167 57H163C161.343 57 160 55.6569 160 54V21Z" fill="white"/>
</svg>
