<svg width="57" height="76" viewBox="0 0 57 76" fill="none" xmlns="http://www.w3.org/2000/svg">
<path d="M46.8065 24.4435C47.0277 24.6641 47.2032 24.9262 47.3229 25.2147C47.4426 25.5033 47.5042 25.8126 47.5042 26.125C47.5042 26.4374 47.4426 26.7467 47.3229 27.0353C47.2032 27.3238 47.0277 27.5859 46.8065 27.8065L38.494 36.119C38.0613 36.5512 37.4786 36.7998 36.8672 36.8131C36.2558 36.8263 35.6628 36.6032 35.2118 36.1903L31.6493 32.9365C31.208 32.5061 30.9514 31.921 30.9336 31.3049C30.9158 30.6888 31.1383 30.0899 31.5539 29.6348C31.9696 29.1796 32.5459 28.9039 33.1611 28.8659C33.7763 28.8279 34.3822 29.0305 34.8507 29.431L36.7365 31.1505L43.4435 24.4435C43.6641 24.2223 43.9262 24.0468 44.2147 23.9271C44.5033 23.8074 44.8126 23.7458 45.125 23.7458C45.4374 23.7458 45.7467 23.8074 46.0353 23.9271C46.3238 24.0468 46.5859 24.2223 46.8065 24.4435ZM46.8065 51.5565C47.2525 51.1112 47.5033 50.5069 47.5037 49.8767C47.5041 49.2464 47.2542 48.6418 46.8089 48.1959C46.3635 47.7499 45.7593 47.4991 45.1291 47.4987C44.4988 47.4982 43.8942 47.7482 43.4482 48.1935L36.7365 54.9005L34.8507 53.181C34.3822 52.7805 33.7763 52.5779 33.1611 52.6159C32.5459 52.6539 31.9696 52.9296 31.5539 53.3848C31.1383 53.8399 30.9158 54.4388 30.9336 55.0549C30.9514 55.671 31.208 56.2561 31.6493 56.6865L35.2118 59.9403C35.6625 60.3518 36.2545 60.5741 36.8648 60.5608C37.475 60.5475 38.0568 60.2998 38.4893 59.869L46.8018 51.5565H46.8065ZM11.875 28.5C11.2451 28.5 10.641 28.7502 10.1956 29.1956C9.75022 29.641 9.5 30.2451 9.5 30.875C9.5 31.5049 9.75022 32.109 10.1956 32.5544C10.641 32.9998 11.2451 33.25 11.875 33.25H23.75C24.3799 33.25 24.984 32.9998 25.4294 32.5544C25.8748 32.109 26.125 31.5049 26.125 30.875C26.125 30.2451 25.8748 29.641 25.4294 29.1956C24.984 28.7502 24.3799 28.5 23.75 28.5H11.875ZM9.5 54.625C9.5 53.9951 9.75022 53.391 10.1956 52.9456C10.641 52.5002 11.2451 52.25 11.875 52.25H23.75C24.3799 52.25 24.984 52.5002 25.4294 52.9456C25.8748 53.391 26.125 53.9951 26.125 54.625C26.125 55.2549 25.8748 55.859 25.4294 56.3044C24.984 56.7498 24.3799 57 23.75 57H11.875C11.2451 57 10.641 56.7498 10.1956 56.3044C9.75022 55.859 9.5 55.2549 9.5 54.625ZM14.6538 4.75C15.1451 3.36025 16.0554 2.15711 17.2592 1.30638C18.4629 0.455657 19.901 -0.00077178 21.375 9.79624e-07H35.625C37.099 -0.00077178 38.5371 0.455657 39.7408 1.30638C40.9446 2.15711 41.8549 3.36025 42.3462 4.75H49.875C51.7647 4.75 53.5769 5.50067 54.9131 6.83687C56.2493 8.17306 57 9.98533 57 11.875V68.875C57 70.7647 56.2493 72.5769 54.9131 73.9131C53.5769 75.2493 51.7647 76 49.875 76H7.125C5.23533 76 3.42306 75.2493 2.08686 73.9131C0.750667 72.5769 0 70.7647 0 68.875V11.875C0 9.98533 0.750667 8.17306 2.08686 6.83687C3.42306 5.50067 5.23533 4.75 7.125 4.75H14.6538ZM21.375 4.75C20.7451 4.75 20.141 5.00022 19.6956 5.44562C19.2502 5.89102 19 6.49511 19 7.125C19 7.75489 19.2502 8.35898 19.6956 8.80438C20.141 9.24978 20.7451 9.5 21.375 9.5H35.625C36.2549 9.5 36.859 9.24978 37.3044 8.80438C37.7498 8.35898 38 7.75489 38 7.125C38 6.49511 37.7498 5.89102 37.3044 5.44562C36.859 5.00022 36.2549 4.75 35.625 4.75H21.375ZM14.6538 9.5H7.125C6.49511 9.5 5.89102 9.75022 5.44562 10.1956C5.00022 10.641 4.75 11.2451 4.75 11.875V68.875C4.75 69.5049 5.00022 70.109 5.44562 70.5544C5.89102 70.9998 6.49511 71.25 7.125 71.25H49.875C50.5049 71.25 51.109 70.9998 51.5544 70.5544C51.9998 70.109 52.25 69.5049 52.25 68.875V11.875C52.25 11.2451 51.9998 10.641 51.5544 10.1956C51.109 9.75022 50.5049 9.5 49.875 9.5H42.3462C41.8549 10.8897 40.9446 12.0929 39.7408 12.9436C38.5371 13.7943 37.099 14.2508 35.625 14.25H21.375C19.901 14.2508 18.4629 13.7943 17.2592 12.9436C16.0554 12.0929 15.1451 10.8897 14.6538 9.5Z" fill="white"/>
</svg>
