<svg width="65" height="53" viewBox="0 0 65 53" fill="none" xmlns="http://www.w3.org/2000/svg">
<path d="M17.2917 35.625V17.375" stroke="black" stroke-width="3" stroke-linecap="round" stroke-linejoin="round"/>
<path d="M59.367 17.375H51.4526C46.0233 17.375 41.625 21.46 41.625 26.5C41.625 31.54 46.0263 35.625 51.4496 35.625H59.367C59.6225 35.625 59.7473 35.625 59.8537 35.6189C61.4962 35.5185 62.8041 34.3049 62.9106 32.781C62.9167 32.6837 62.9167 32.5651 62.9167 32.3309V20.6691C62.9167 20.4349 62.9167 20.3163 62.9106 20.219C62.8011 18.6951 61.4962 17.4815 59.8537 17.3811C59.7503 17.375 59.6225 17.375 59.367 17.375Z" stroke="black" stroke-width="3"/>
<path d="M59.7686 17.375C59.5313 11.681 58.7709 8.18916 56.3102 5.73149C52.7484 2.16666 47.0118 2.16666 35.5417 2.16666H26.4167C14.9466 2.16666 9.21 2.16666 5.64821 5.73149C2.08337 9.29328 2.08337 15.0299 2.08337 26.5C2.08337 37.9701 2.08337 43.7067 5.64821 47.2685C9.21 50.8333 14.9466 50.8333 26.4167 50.8333H35.5417C47.0118 50.8333 52.7484 50.8333 56.3102 47.2685C58.7709 44.8108 59.5344 41.319 59.7686 35.625" stroke="black" stroke-width="3"/>
<path d="M50.7227 26.5H50.7534H50.7227Z" fill="black"/>
<path d="M50.7227 26.5H50.7534" stroke="black" stroke-width="5" stroke-linecap="round" stroke-linejoin="round"/>
</svg>
