<svg width="14" height="14" viewBox="0 0 14 14" fill="none" xmlns="http://www.w3.org/2000/svg">
<path d="M6.99968 9.97916C6.88856 9.97916 6.7844 9.96194 6.68718 9.9275C6.58995 9.89305 6.49968 9.83389 6.41634 9.75L3.41634 6.75C3.26356 6.59722 3.18718 6.40278 3.18718 6.16666C3.18718 5.93055 3.26356 5.73611 3.41634 5.58333C3.56912 5.43055 3.76718 5.35083 4.01051 5.34416C4.25384 5.3375 4.45162 5.41027 4.60384 5.5625L6.16634 7.125V1.16666C6.16634 0.930553 6.24634 0.732498 6.40634 0.572498C6.56634 0.412498 6.76412 0.332776 6.99968 0.333331C7.23579 0.333331 7.43384 0.413331 7.59384 0.573331C7.75384 0.733331 7.83356 0.931109 7.83301 1.16666V7.125L9.39551 5.5625C9.54829 5.40972 9.74634 5.33666 9.98968 5.34333C10.233 5.35 10.4308 5.43 10.583 5.58333C10.7358 5.73611 10.8122 5.93055 10.8122 6.16666C10.8122 6.40278 10.7358 6.59722 10.583 6.75L7.58301 9.75C7.49968 9.83333 7.4094 9.8925 7.31218 9.9275C7.21495 9.9625 7.11079 9.97972 6.99968 9.97916ZM1.99968 13.6667C1.54134 13.6667 1.14884 13.5033 0.822176 13.1767C0.495509 12.85 0.332454 12.4578 0.333009 12V10.3333C0.333009 10.0972 0.413009 9.89916 0.573009 9.73916C0.733009 9.57916 0.930787 9.49944 1.16634 9.5C1.40245 9.5 1.60051 9.58 1.76051 9.74C1.92051 9.9 2.00023 10.0978 1.99968 10.3333V12H11.9997V10.3333C11.9997 10.0972 12.0797 9.89916 12.2397 9.73916C12.3997 9.57916 12.5975 9.49944 12.833 9.5C13.0691 9.5 13.2672 9.58 13.4272 9.74C13.5872 9.9 13.6669 10.0978 13.6663 10.3333V12C13.6663 12.4583 13.503 12.8508 13.1763 13.1775C12.8497 13.5042 12.4575 13.6672 11.9997 13.6667H1.99968Z" fill="#19A942"/>
</svg>
