<svg width="47" height="37" viewBox="0 0 47 37" fill="none" xmlns="http://www.w3.org/2000/svg">
<path d="M41.9645 4.96196L42.7037 4.49996H41.832H5.16536H4.29367L5.03286 4.96196L23.3662 16.4203L23.4987 16.5031L23.6312 16.4203L41.9645 4.96196ZM41.832 32.5H42.082V32.25V9.33329V8.88223L41.6995 9.12129L23.4987 20.4968L5.29786 9.12129L4.91536 8.88223V9.33329V32.25V32.5H5.16536H41.832ZM41.832 0.416626C44.2148 0.416626 46.1654 2.3672 46.1654 4.74996V32.25C46.1654 34.6327 44.2148 36.5833 41.832 36.5833H5.16536C2.7826 36.5833 0.832031 34.6327 0.832031 32.25V4.74996C0.832031 2.3672 2.7826 0.416626 5.16536 0.416626H41.832Z" fill="#09689D" stroke="white" stroke-width="0.5"/>
</svg>
