<svg width="31" height="49" viewBox="0 0 31 49" fill="none" xmlns="http://www.w3.org/2000/svg">
<path d="M25.8125 0.867188H5.1875C3.93394 0.867188 2.73172 1.36516 1.84532 2.25157C0.958913 3.13797 0.460938 4.34019 0.460938 5.59375V43.4062C0.460938 44.6598 0.958913 45.862 1.84532 46.7484C2.73172 47.6348 3.93394 48.1328 5.1875 48.1328H25.8125C27.0661 48.1328 28.2683 47.6348 29.1547 46.7484C30.0411 45.862 30.5391 44.6598 30.5391 43.4062V5.59375C30.5391 4.34019 30.0411 3.13797 29.1547 2.25157C28.2683 1.36516 27.0661 0.867188 25.8125 0.867188ZM27.9609 43.4062C27.9609 43.9761 27.7346 44.5225 27.3317 44.9254C26.9288 45.3283 26.3823 45.5547 25.8125 45.5547H5.1875C4.6177 45.5547 4.07124 45.3283 3.66833 44.9254C3.26542 44.5225 3.03906 43.9761 3.03906 43.4062V5.59375C3.03906 5.02395 3.26542 4.47749 3.66833 4.07458C4.07124 3.67167 4.6177 3.44531 5.1875 3.44531H25.8125C26.3823 3.44531 26.9288 3.67167 27.3317 4.07458C27.7346 4.47749 27.9609 5.02395 27.9609 5.59375V43.4062ZM17.6484 9.89062C17.6484 10.3155 17.5224 10.7309 17.2864 11.0842C17.0503 11.4375 16.7147 11.7129 16.3222 11.8755C15.9296 12.0381 15.4976 12.0807 15.0809 11.9978C14.6641 11.9149 14.2813 11.7103 13.9808 11.4098C13.6804 11.1093 13.4757 10.7265 13.3928 10.3098C13.3099 9.89301 13.3525 9.46103 13.5151 9.06845C13.6777 8.67588 13.9531 8.34034 14.3064 8.10426C14.6597 7.86819 15.0751 7.74219 15.5 7.74219C16.0698 7.74219 16.6163 7.96854 17.0192 8.37145C17.4221 8.77436 17.6484 9.32082 17.6484 9.89062Z" fill="#09689D"/>
</svg>
