<svg width="22" height="22" viewBox="0 0 22 22" fill="none" xmlns="http://www.w3.org/2000/svg">
<path d="M3.90785 18.0909H9.22603C9.22603 18.5611 9.4128 19.012 9.74525 19.3444C10.0777 19.6769 10.5286 19.8636 10.9988 19.8636C11.4689 19.8636 11.9198 19.6769 12.2523 19.3444C12.5847 19.012 12.7715 18.5611 12.7715 18.0909H18.0897C18.3247 18.0909 18.5502 17.9975 18.7164 17.8313C18.8826 17.6651 18.976 17.4396 18.976 17.2046C18.976 16.9695 18.8826 16.744 18.7164 16.5778C18.5502 16.4116 18.3247 16.3182 18.0897 16.3182V10.1136C18.0897 8.23302 17.3426 6.42942 16.0128 5.09962C14.683 3.76981 12.8794 3.02274 10.9988 3.02274C9.11813 3.02274 7.31453 3.76981 5.98473 5.09962C4.65492 6.42942 3.90785 8.23302 3.90785 10.1136V16.3182C3.67277 16.3182 3.44732 16.4116 3.28109 16.5778C3.11487 16.744 3.02148 16.9695 3.02148 17.2046C3.02148 17.4396 3.11487 17.6651 3.28109 17.8313C3.44732 17.9975 3.67277 18.0909 3.90785 18.0909ZM5.68058 10.1136C5.68058 8.70318 6.24088 7.35048 7.23823 6.35312C8.23559 5.35577 9.58829 4.79546 10.9988 4.79546C12.4092 4.79546 13.7619 5.35577 14.7593 6.35312C15.7566 7.35048 16.3169 8.70318 16.3169 10.1136V16.3182H5.68058V10.1136Z" fill="#1795C7"/>
</svg>
