<svg width="18" height="24" viewBox="0 0 18 24" fill="none" xmlns="http://www.w3.org/2000/svg">
<path d="M14.3956 8.0044C14.4608 8.06943 14.5125 8.14667 14.5478 8.23172C14.5831 8.31676 14.6013 8.40793 14.6013 8.5C14.6013 8.59208 14.5831 8.68325 14.5478 8.76829C14.5125 8.85333 14.4608 8.93058 14.3956 8.9956L11.9456 11.4456C11.8181 11.573 11.6463 11.6463 11.4661 11.6502C11.2859 11.6541 11.1111 11.5883 10.9782 11.4666L9.92821 10.5076C9.79816 10.3807 9.72253 10.2083 9.71728 10.0267C9.71204 9.84512 9.7776 9.66861 9.90011 9.53446C10.0226 9.40032 10.1925 9.31906 10.3738 9.30785C10.5551 9.29664 10.7337 9.35637 10.8718 9.4744L11.4276 9.9812L13.4044 8.0044C13.4694 7.93921 13.5467 7.88749 13.6317 7.85221C13.7168 7.81692 13.8079 7.79875 13.9 7.79875C13.9921 7.79875 14.0832 7.81692 14.1683 7.85221C14.2533 7.88749 14.3306 7.93921 14.3956 8.0044ZM14.3956 15.9956C14.527 15.8643 14.601 15.6863 14.6011 15.5005C14.6012 15.3147 14.5276 15.1365 14.3963 15.0051C14.265 14.8737 14.087 14.7997 13.9012 14.7996C13.7154 14.7995 13.5372 14.8731 13.4058 15.0044L11.4276 16.9812L10.8718 16.4744C10.7337 16.3564 10.5551 16.2966 10.3738 16.3078C10.1925 16.3191 10.0226 16.4003 9.90011 16.5345C9.7776 16.6686 9.71204 16.8451 9.71728 17.0267C9.72253 17.2083 9.79816 17.3808 9.92821 17.5076L10.9782 18.4666C11.1111 18.5879 11.2855 18.6534 11.4654 18.6495C11.6453 18.6456 11.8167 18.5726 11.9442 18.4456L14.3942 15.9956H14.3956ZM4.10001 9.2C3.91435 9.2 3.73631 9.27375 3.60503 9.40503C3.47376 9.5363 3.40001 9.71435 3.40001 9.9C3.40001 10.0857 3.47376 10.2637 3.60503 10.395C3.73631 10.5263 3.91435 10.6 4.10001 10.6H7.60001C7.78566 10.6 7.96371 10.5263 8.09498 10.395C8.22626 10.2637 8.30001 10.0857 8.30001 9.9C8.30001 9.71435 8.22626 9.5363 8.09498 9.40503C7.96371 9.27375 7.78566 9.2 7.60001 9.2H4.10001ZM3.40001 16.9C3.40001 16.7144 3.47376 16.5363 3.60503 16.405C3.73631 16.2738 3.91435 16.2 4.10001 16.2H7.60001C7.78566 16.2 7.96371 16.2738 8.09498 16.405C8.22626 16.5363 8.30001 16.7144 8.30001 16.9C8.30001 17.0857 8.22626 17.2637 8.09498 17.395C7.96371 17.5263 7.78566 17.6 7.60001 17.6H4.10001C3.91435 17.6 3.73631 17.5263 3.60503 17.395C3.47376 17.2637 3.40001 17.0857 3.40001 16.9ZM4.91901 2.2C5.06382 1.79039 5.33212 1.43578 5.68692 1.18504C6.04172 0.934302 6.46555 0.799776 6.90001 0.800003H11.1C11.5345 0.799776 11.9583 0.934302 12.3131 1.18504C12.6679 1.43578 12.9362 1.79039 13.081 2.2H15.3C15.857 2.2 16.3911 2.42125 16.7849 2.81508C17.1788 3.20891 17.4 3.74305 17.4 4.3V21.1C17.4 21.657 17.1788 22.1911 16.7849 22.5849C16.3911 22.9788 15.857 23.2 15.3 23.2H2.70001C2.14305 23.2 1.60891 22.9788 1.21508 22.5849C0.821255 22.1911 0.600006 21.657 0.600006 21.1V4.3C0.600006 3.74305 0.821255 3.20891 1.21508 2.81508C1.60891 2.42125 2.14305 2.2 2.70001 2.2H4.91901ZM6.90001 2.2C6.71435 2.2 6.53631 2.27375 6.40503 2.40503C6.27376 2.5363 6.20001 2.71435 6.20001 2.9C6.20001 3.08565 6.27376 3.2637 6.40503 3.39498C6.53631 3.52625 6.71435 3.6 6.90001 3.6H11.1C11.2857 3.6 11.4637 3.52625 11.595 3.39498C11.7263 3.2637 11.8 3.08565 11.8 2.9C11.8 2.71435 11.7263 2.5363 11.595 2.40503C11.4637 2.27375 11.2857 2.2 11.1 2.2H6.90001ZM4.91901 3.6H2.70001C2.51435 3.6 2.33631 3.67375 2.20503 3.80503C2.07376 3.9363 2.00001 4.11435 2.00001 4.3V21.1C2.00001 21.2857 2.07376 21.4637 2.20503 21.595C2.33631 21.7263 2.51435 21.8 2.70001 21.8H15.3C15.4857 21.8 15.6637 21.7263 15.795 21.595C15.9263 21.4637 16 21.2857 16 21.1V4.3C16 4.11435 15.9263 3.9363 15.795 3.80503C15.6637 3.67375 15.4857 3.6 15.3 3.6H13.081C12.9362 4.00961 12.6679 4.36422 12.3131 4.61496C11.9583 4.8657 11.5345 5.00023 11.1 5H6.90001C6.46555 5.00023 6.04172 4.8657 5.68692 4.61496C5.33212 4.36422 5.06382 4.00961 4.91901 3.6Z" fill="white"/>
</svg>
