<svg width="55" height="55" viewBox="0 0 55 55" fill="none" xmlns="http://www.w3.org/2000/svg">
<path d="M49.1077 13.75H5.89342C3.72372 13.75 1.96484 15.5089 1.96484 17.6786V49.1071C1.96484 51.2768 3.72372 53.0357 5.89342 53.0357H49.1077C51.2774 53.0357 53.0363 51.2768 53.0363 49.1071V17.6786C53.0363 15.5089 51.2774 13.75 49.1077 13.75Z" stroke="#09689D" stroke-width="2" stroke-linecap="round" stroke-linejoin="round"/>
<path d="M13.75 27.5H41.25M13.75 39.2857H41.25M19.6429 1.96429H35.3571C36.3991 1.96429 37.3983 2.3782 38.1351 3.11495C38.8718 3.8517 39.2857 4.85094 39.2857 5.89287V13.75H15.7143V5.89287C15.7143 4.85094 16.1282 3.8517 16.8649 3.11495C17.6017 2.3782 18.6009 1.96429 19.6429 1.96429Z" stroke="#09689D" stroke-width="2" stroke-linecap="round" stroke-linejoin="round"/>
</svg>
