<svg width="45" height="44" viewBox="0 0 45 44" fill="none" xmlns="http://www.w3.org/2000/svg">
<path d="M44.6118 40.5469C41.3397 34.89 36.2973 30.8338 30.4128 28.9109C33.3235 27.1781 35.585 24.5377 36.8499 21.3953C38.1149 18.2528 38.3133 14.782 37.4147 11.5158C36.5161 8.24966 34.5702 5.36878 31.8758 3.31558C29.1814 1.26239 25.8876 0.150406 22.5001 0.150406C19.1126 0.150406 15.8187 1.26239 13.1244 3.31558C10.43 5.36878 8.48409 8.24966 7.5855 11.5158C6.6869 14.782 6.88529 18.2528 8.15021 21.3953C9.41512 24.5377 11.6766 27.1781 14.5874 28.9109C8.70281 30.8316 3.66043 34.8879 0.388359 40.5469C0.268367 40.7425 0.188777 40.9602 0.154285 41.1871C0.119793 41.4141 0.131098 41.6456 0.187533 41.8681C0.243968 42.0905 0.34439 42.2994 0.482873 42.4825C0.621357 42.6655 0.795097 42.819 0.993843 42.9338C1.19259 43.0485 1.41231 43.1224 1.64006 43.1509C1.8678 43.1794 2.09894 43.162 2.31985 43.0997C2.54076 43.0374 2.74696 42.9316 2.92628 42.7883C3.1056 42.645 3.25442 42.4673 3.36395 42.2656C7.4116 35.2703 14.5659 31.0938 22.5001 31.0938C30.4343 31.0938 37.5886 35.2703 41.6362 42.2656C41.7457 42.4673 41.8946 42.645 42.0739 42.7883C42.2532 42.9316 42.4594 43.0374 42.6803 43.0997C42.9012 43.162 43.1324 43.1794 43.3601 43.1509C43.5878 43.1224 43.8076 43.0485 44.0063 42.9338C44.2051 42.819 44.3788 42.6655 44.5173 42.4825C44.6558 42.2994 44.7562 42.0905 44.8126 41.8681C44.8691 41.6456 44.8804 41.4141 44.8459 41.1871C44.8114 40.9602 44.7318 40.7425 44.6118 40.5469ZM10.4688 15.625C10.4688 13.2454 11.1744 10.9193 12.4965 8.9408C13.8185 6.96227 15.6975 5.42019 17.8959 4.50957C20.0943 3.59896 22.5134 3.3607 24.8473 3.82493C27.1811 4.28916 29.3249 5.43502 31.0075 7.11762C32.6901 8.80022 33.8359 10.944 34.3002 13.2778C34.7644 15.6117 34.5261 18.0307 33.6155 20.2292C32.7049 22.4276 31.1628 24.3066 29.1843 25.6286C27.2058 26.9506 24.8796 27.6563 22.5001 27.6563C19.3102 27.6528 16.252 26.3842 13.9965 24.1286C11.7409 21.8731 10.4722 18.8148 10.4688 15.625Z" fill="#09689D"/>
</svg>
